<svg viewBox="0 0 2462 471" fill="none" xmlns="http://www.w3.org/2000/svg">
<path d="M2382.28 366.334C2366.54 366.334 2353.96 361.624 2344.52 352.204C2335.42 342.784 2330.88 330.224 2330.88 314.524V153.86H2259.55V108.33H2330.88V23.0269H2384.9V108.33H2462V153.86H2384.9V305.104C2384.9 315.57 2389.8 320.804 2399.59 320.804H2453.61V366.334H2382.28Z" fill="white"/>
<path d="M2112.18 373.66C2093.65 373.66 2077.04 370.52 2062.36 364.24C2048.02 357.96 2036.48 348.715 2027.74 336.503C2019.35 324.292 2015.15 309.465 2015.15 292.02C2015.15 274.227 2019.35 259.573 2027.74 248.06C2036.48 236.198 2048.2 227.301 2062.88 221.37C2077.92 215.439 2094.88 212.473 2113.76 212.473H2192.43V195.727C2192.43 180.725 2187.88 168.688 2178.79 159.617C2169.7 150.546 2155.72 146.01 2136.83 146.01C2118.3 146.01 2104.14 150.371 2094.35 159.093C2084.56 167.816 2078.09 179.155 2074.95 193.11L2024.6 176.887C2028.79 162.931 2035.43 150.371 2044.53 139.207C2053.97 127.693 2066.38 118.448 2081.76 111.47C2097.15 104.492 2115.68 101.003 2137.36 101.003C2170.93 101.003 2197.33 109.551 2216.56 126.647C2235.79 143.742 2245.4 167.99 2245.4 199.39V305.627C2245.4 316.093 2250.3 321.327 2260.09 321.327H2282.12V366.333H2241.73C2229.49 366.333 2219.53 363.193 2211.84 356.913C2204.14 350.633 2200.3 342.086 2200.3 331.27V329.7H2192.43C2189.63 334.933 2185.44 341.039 2179.84 348.017C2174.25 354.994 2166.03 361.1 2155.19 366.333C2144.35 371.218 2130.02 373.66 2112.18 373.66ZM2120.05 329.177C2141.73 329.177 2159.21 323.071 2172.5 310.86C2185.79 298.3 2192.43 281.205 2192.43 259.573V254.34H2116.9C2102.57 254.34 2091.03 257.48 2082.29 263.76C2073.55 269.691 2069.18 278.588 2069.18 290.45C2069.18 302.312 2073.72 311.732 2082.81 318.71C2091.9 325.688 2104.32 329.177 2120.05 329.177Z" fill="white"/>
<path d="M1875.65 373.66C1849.43 373.66 1826.52 368.252 1806.94 357.437C1787.36 346.272 1771.98 330.747 1760.79 310.86C1749.95 290.625 1744.53 267.249 1744.53 240.733V234.453C1744.53 207.589 1749.95 184.213 1760.79 164.327C1771.63 144.091 1786.66 128.566 1805.89 117.75C1825.47 106.586 1848.03 101.003 1873.55 101.003C1898.38 101.003 1920.06 106.586 1938.59 117.75C1957.47 128.566 1972.16 143.742 1982.65 163.28C1993.14 182.818 1998.38 205.67 1998.38 231.837V252.247H1799.6C1800.3 274.925 1807.82 293.067 1822.15 306.673C1836.84 319.931 1855.02 326.56 1876.7 326.56C1896.98 326.56 1912.19 322.025 1922.33 312.953C1932.82 303.882 1940.86 293.416 1946.46 281.553L1991.04 304.58C1986.14 314.349 1978.97 324.641 1969.53 335.457C1960.44 346.272 1948.38 355.343 1933.34 362.67C1918.31 369.997 1899.08 373.66 1875.65 373.66ZM1800.12 210.903H1943.31C1941.91 191.366 1934.92 176.189 1922.33 165.373C1909.74 154.209 1893.31 148.627 1873.03 148.627C1852.75 148.627 1836.14 154.209 1823.2 165.373C1810.61 176.189 1802.92 191.366 1800.12 210.903Z" fill="white"/>
<path d="M1602.07 373.66C1576.89 373.66 1557.48 369.124 1543.85 360.053C1530.56 350.982 1520.6 340.864 1513.95 329.7H1505.56V366.333H1452.59V0H1506.61V143.393H1515C1519.2 136.416 1524.79 129.787 1531.79 123.507C1538.78 116.878 1548.04 111.47 1559.58 107.283C1571.12 103.097 1585.28 101.003 1602.07 101.003C1623.74 101.003 1643.68 106.237 1661.86 116.703C1680.04 127.17 1694.55 142.347 1705.39 162.233C1716.23 182.12 1721.65 205.844 1721.65 233.407V241.257C1721.65 269.168 1716.05 293.067 1704.87 312.953C1694.03 332.491 1679.52 347.493 1661.33 357.96C1643.5 368.427 1623.74 373.66 1602.07 373.66ZM1586.33 326.56C1609.76 326.56 1628.99 319.059 1644.03 304.057C1659.41 289.054 1667.1 267.598 1667.1 239.687V234.977C1667.1 207.414 1659.58 186.132 1644.55 171.13C1629.51 156.128 1610.11 148.627 1586.33 148.627C1563.25 148.627 1544.02 156.128 1528.64 171.13C1513.6 186.132 1506.09 207.414 1506.09 234.977V239.687C1506.09 267.598 1513.6 289.054 1528.64 304.057C1544.02 319.059 1563.25 326.56 1586.33 326.56Z" fill="white"/>
<path d="M1282.53 373.66C1256.66 373.66 1233.58 368.427 1213.3 357.96C1193.37 347.145 1177.63 331.793 1166.1 311.907C1154.56 292.02 1148.79 268.47 1148.79 241.257V233.407C1148.79 206.193 1154.56 182.818 1166.1 163.28C1177.63 143.393 1193.37 128.042 1213.3 117.227C1233.58 106.411 1256.66 101.003 1282.53 101.003C1308.41 101.003 1331.48 106.411 1351.76 117.227C1372.04 128.042 1387.95 143.393 1399.49 163.28C1411.03 182.818 1416.8 206.193 1416.8 233.407V241.257C1416.8 268.47 1411.03 292.02 1399.49 311.907C1387.95 331.793 1372.04 347.145 1351.76 357.96C1331.48 368.427 1308.41 373.66 1282.53 373.66ZM1282.53 325.513C1306.31 325.513 1325.54 318.012 1340.22 303.01C1355.26 287.659 1362.78 266.551 1362.78 239.687V234.977C1362.78 208.112 1355.43 187.179 1340.75 172.177C1326.06 156.826 1306.66 149.15 1282.53 149.15C1259.1 149.15 1239.87 156.826 1224.84 172.177C1210.15 187.179 1202.81 208.112 1202.81 234.977V239.687C1202.81 266.551 1210.15 287.659 1224.84 303.01C1239.87 318.012 1259.1 325.513 1282.53 325.513Z" fill="white"/>
<path d="M999.234 366.333V108.33H1052.21V138.683H1060.6C1064.8 127.868 1071.44 120.018 1080.53 115.133C1089.97 109.9 1101.51 107.283 1115.15 107.283H1146.09V155.953H1113.05C1095.56 155.953 1081.23 160.838 1070.04 170.607C1058.85 180.027 1053.26 194.68 1053.26 214.567V366.333H999.234Z" fill="white"/>
<path d="M682.631 238.64V230.79C682.631 203.577 688.051 180.376 698.89 161.187C710.079 141.998 724.765 127.17 742.947 116.703C761.129 106.237 781.059 101.003 802.738 101.003C827.913 101.003 847.144 105.713 860.431 115.133C874.068 124.553 884.033 134.671 890.327 145.487H898.719V108.33H951.167V419.19C951.167 434.89 946.447 447.45 937.006 456.87C927.915 466.29 915.328 471 899.243 471H725.114V423.9H882.46C892.6 423.9 897.67 418.667 897.67 408.2V326.037H889.278C885.432 332.317 880.012 338.771 873.019 345.4C866.026 352.029 856.76 357.437 845.221 361.623C834.032 365.81 819.871 367.903 802.738 367.903C781.059 367.903 760.954 362.844 742.422 352.727C724.24 342.26 709.729 327.432 698.89 308.243C688.051 288.706 682.631 265.505 682.631 238.64ZM817.424 320.803C840.851 320.803 860.082 313.477 875.117 298.823C890.502 283.821 898.194 263.237 898.194 237.07V232.36C898.194 205.496 890.677 184.911 875.641 170.607C860.606 155.953 841.2 148.627 817.424 148.627C794.346 148.627 775.115 155.953 759.73 170.607C744.695 184.911 737.177 205.496 737.177 232.36V237.07C737.177 263.237 744.695 283.821 759.73 298.823C775.115 313.477 794.346 320.803 817.424 320.803Z" fill="white"/>
<path d="M510.374 373.66C491.842 373.66 475.233 370.52 460.547 364.24C446.212 357.96 434.673 348.715 425.931 336.503C417.54 324.292 413.344 309.465 413.344 292.02C413.344 274.227 417.54 259.573 425.931 248.06C434.673 236.198 446.386 227.301 461.072 221.37C476.107 215.439 493.066 212.473 511.947 212.473H590.62V195.727C590.62 180.725 586.074 168.688 576.983 159.617C567.892 150.546 553.906 146.01 535.024 146.01C516.493 146.01 502.331 150.371 492.541 159.093C482.751 167.816 476.282 179.155 473.135 193.11L422.784 176.887C426.98 162.931 433.624 150.371 442.715 139.207C452.156 127.693 464.568 118.448 479.953 111.47C495.338 104.492 513.87 101.003 535.549 101.003C569.116 101.003 595.515 109.551 614.746 126.647C633.977 143.742 643.593 167.99 643.593 199.39V305.627C643.593 316.093 648.488 321.327 658.278 321.327H680.307V366.333H639.921C627.683 366.333 617.718 363.193 610.026 356.913C602.333 350.633 598.487 342.086 598.487 331.27V329.7H590.62C587.823 334.933 583.627 341.039 578.032 348.017C572.438 354.994 564.221 361.1 553.381 366.333C542.542 371.218 528.206 373.66 510.374 373.66ZM518.241 329.177C539.92 329.177 557.402 323.071 570.689 310.86C583.976 298.3 590.62 281.205 590.62 259.573V254.34H515.094C500.758 254.34 489.219 257.48 480.478 263.76C471.736 269.691 467.366 278.588 467.366 290.45C467.366 302.312 471.911 311.732 481.002 318.71C490.093 325.688 502.506 329.177 518.241 329.177Z" fill="white"/>
<path fill-rule="evenodd" clip-rule="evenodd" d="M1 200.553V120.405H77.8289L151.585 200.553V277.619H77.8289L1 200.553ZM151.585 354.685V431.75H77.8289L1 354.685V277.619H77.8289L151.585 354.685ZM231.487 200.553L308.316 120.405V43.3389H231.487L151.585 120.405V200.553H231.487ZM231.487 200.553H308.316V277.619L231.487 354.685H151.585V277.619L231.487 200.553Z" fill="#CCE86B"/>
<path d="M77.8289 277.619L1 200.553V120.405H77.8289L151.585 200.553M77.8289 277.619H151.585M77.8289 277.619H1V354.685L77.8289 431.75H151.585V354.685M77.8289 277.619L151.585 354.685M151.585 277.619V354.685M151.585 277.619L231.487 200.553M151.585 277.619V200.553M151.585 354.685H231.487L308.316 277.619V200.553H231.487M231.487 200.553H151.585M231.487 200.553L308.316 120.405V43.3389H231.487L151.585 120.405V200.553" stroke="#CCE86B"/>
</svg>
